<?xml version="1.0" encoding="UTF-8"?>
<svg xmlns="http://www.w3.org/2000/svg" xmlns:xlink="http://www.w3.org/1999/xlink" width="1600pt" height="800pt" viewBox="0 0 1600 800" version="1.1"><g><g clip-path="url(#FD88hhoDEv__clip1)" clip-rule="nonzero">
<path style="fill:none;stroke-width:3;stroke-linecap:butt;stroke-linejoin:miter;stroke:rgb(30.588235%,47.45098%,65.490196%);stroke-opacity:1;stroke-miterlimit:10;" d="M 82.435547 51.365234 L 89.597656 50.525391 L 96.759766 53.884766 L 103.921875 51.939453 L 111.083984 51.939453 L 118.246094 52.736328 L 125.408203 53.222656 L 132.570312 53.443359 L 139.732422 52.337891 L 146.894531 52.515625 L 154.056641 53.089844 L 161.21875 51.498047 L 168.380859 52.337891 L 175.542969 52.292969 L 182.705078 51.71875 L 189.867188 51.962891 L 197.029297 52.226562 L 204.191406 52.449219 L 211.353516 52.183594 L 218.515625 51.962891 L 225.677734 52.005859 L 232.839844 51.851562 L 240.001953 51.607422 L 247.164062 51.585938 L 254.326172 51.607422 L 261.488281 51.1875 L 268.650391 50.945312 L 275.8125 50.990234 L 282.974609 51.210938 L 290.136719 51.320312 L 297.298828 51.410156 L 304.460938 51.830078 L 311.623047 51.71875 L 318.785156 51.851562 L 325.947266 52.117188 L 333.109375 52.160156 L 340.271484 52.029297 L 354.595703 51.806641 L 361.757812 52.005859 L 368.919922 51.830078 L 376.082031 51.917969 L 383.244141 51.984375 L 390.40625 52.029297 L 397.568359 52.09375 L 404.730469 52.029297 L 411.892578 52.09375 L 419.054688 52.25 L 433.378906 52.160156 L 440.541016 52.066406 L 447.703125 51.917969 L 454.865234 52.072266 L 462.027344 52.050781 L 469.189453 52.072266 L 476.351562 52.183594 L 483.513672 52.337891 L 490.675781 52.205078 L 497.837891 52.25 L 505 52.271484 L 512.162109 52.271484 L 519.324219 52.183594 L 526.486328 52.072266 L 533.648438 52.029297 L 540.810547 51.896484 L 547.972656 51.806641 L 555.134766 51.763672 L 562.296875 51.71875 L 569.458984 51.71875 L 576.621094 51.806641 L 583.783203 51.585938 L 590.945312 51.542969 L 598.107422 51.763672 L 605.269531 51.652344 L 612.431641 51.71875 L 619.59375 51.740234 L 626.755859 51.652344 L 633.917969 51.740234 L 641.080078 51.453125 L 648.242188 51.34375 L 655.404297 51.365234 L 662.566406 51.277344 L 669.728516 51.078125 L 676.890625 51.144531 L 684.052734 51.144531 L 691.214844 51.1875 L 698.376953 51.1875 L 705.539062 50.990234 L 712.701172 50.767578 L 719.863281 51.1875 L 727.025391 49.685547 L 734.1875 51.232422 L 755.673828 51.232422 L 762.835938 51.1875 L 769.998047 51.232422 L 777.160156 51.232422 L 784.322266 50.570312 L 791.484375 51.232422 " transform="matrix(2,0,0,2,0,0)"/>
</g></g></svg>
