<?xml version="1.0" encoding="UTF-8"?>
<svg xmlns="http://www.w3.org/2000/svg" xmlns:xlink="http://www.w3.org/1999/xlink" width="1600pt" height="800pt" viewBox="0 0 1600 800" version="1.1"><g><g clip-path="url(#RJERzs4vTy__clip1)" clip-rule="nonzero">
<path style="fill:none;stroke-width:3;stroke-linecap:butt;stroke-linejoin:miter;stroke:rgb(30.588235%,47.45098%,65.490196%);stroke-opacity:1;stroke-miterlimit:10;" d="M 81.792969 55.216797 L 88.960938 55.136719 L 96.130859 55.220703 L 103.298828 55.578125 L 110.466797 55.755859 L 117.636719 55.763672 L 124.804688 55.542969 L 131.972656 55.650391 L 139.142578 55.865234 L 146.310547 55.726562 L 153.478516 55.558594 L 160.648438 55.466797 L 167.816406 55.236328 L 174.984375 55.605469 L 182.154297 55.667969 L 189.322266 55.689453 L 196.490234 55.90625 L 203.660156 56.123047 L 210.828125 55.857422 L 217.996094 55.945312 L 225.166016 56.154297 L 232.333984 56.060547 L 239.501953 55.816406 L 246.671875 55.662109 L 253.839844 55.525391 L 261.007812 55.378906 L 268.177734 55.121094 L 275.345703 55.078125 L 282.513672 55.078125 L 289.683594 55.109375 L 296.851562 55.158203 L 304.019531 54.832031 L 311.1875 54.730469 L 318.357422 54.929688 L 325.525391 54.726562 L 332.693359 54.738281 L 339.863281 54.707031 L 347.03125 54.580078 L 354.199219 54.667969 L 361.369141 54.380859 L 368.537109 54.171875 L 375.705078 54.199219 L 382.875 54.070312 L 390.042969 53.769531 L 397.210938 53.84375 L 404.380859 53.792969 L 411.548828 53.876953 L 418.716797 53.761719 L 425.886719 53.587891 L 433.054688 53.240234 L 440.222656 53.691406 L 447.392578 54.541016 L 454.560547 53.894531 L 461.728516 54.003906 L 468.898438 54.009766 L 476.066406 54.070312 L 483.234375 54.015625 L 490.404297 53.943359 L 497.572266 53.964844 L 504.740234 53.996094 L 511.908203 54.03125 L 519.078125 53.996094 L 526.246094 54.025391 L 533.414062 54 L 540.583984 54.0625 L 547.751953 53.996094 L 554.919922 54.09375 L 562.089844 54.066406 L 569.257812 54.097656 L 576.425781 54.083984 L 583.595703 54.058594 L 590.763672 54.132812 L 597.931641 54.126953 L 605.101562 54.083984 L 612.269531 54.070312 L 619.4375 54.132812 L 626.607422 53.996094 L 633.775391 54.167969 L 640.943359 54.1875 L 648.113281 54.212891 L 655.28125 54.185547 L 662.449219 54.076172 L 669.619141 54.105469 L 676.787109 54.199219 L 683.955078 54.160156 L 691.125 54.119141 L 698.292969 54.083984 L 705.460938 53.994141 L 712.630859 53.908203 L 719.798828 53.884766 L 726.966797 53.912109 L 734.134766 53.947266 L 741.304688 53.769531 L 748.472656 53.769531 L 755.640625 53.744141 L 762.810547 53.710938 L 769.978516 53.664062 L 777.146484 53.646484 L 784.316406 53.585938 L 791.484375 53.730469 " transform="matrix(2,0,0,2,0,0)"/>
</g></g></svg>
