<?xml version="1.0" encoding="UTF-8"?>
<svg xmlns="http://www.w3.org/2000/svg" xmlns:xlink="http://www.w3.org/1999/xlink" width="1600pt" height="800pt" viewBox="0 0 1600 800" version="1.1">


<g><g clip-path="url(#zAvceeTEvU__clip1)" clip-rule="nonzero">
<path style=" stroke:none;fill-rule:nonzero;fill:rgb(0%,48.235294%,100%);fill-opacity:0.498039;" d="M 79.519531 322.207031 L 94.707031 289.242188 L 109.894531 305.726562 L 125.078125 173.929688 L 140.265625 151.898438 L 155.453125 173.875 L 170.636719 132.121094 L 185.824219 173.875 L 201.011719 85.976562 L 216.195312 311.21875 L 231.382812 118.9375 L 246.570312 91.46875 L 261.757812 96.960938 L 276.941406 311.21875 L 292.128906 388.128906 L 307.316406 651.832031 L 322.5 388.128906 L 337.6875 448.5625 L 352.875 558.4375 L 368.0625 547.449219 L 383.246094 547.449219 L 398.433594 405.160156 L 413.621094 508.992188 L 428.804688 569.425781 L 443.992188 646.335938 L 459.179688 569.425781 L 474.363281 629.855469 L 489.550781 682.046875 L 504.738281 607.878906 L 519.925781 654.578125 L 535.109375 572.171875 L 550.296875 596.894531 L 565.484375 640.84375 L 580.667969 679.300781 L 595.855469 638.097656 L 611.042969 591.398438 L 626.230469 580.410156 L 641.414062 555.691406 L 656.601562 530.96875 L 671.789062 558.4375 L 686.972656 500.753906 L 702.160156 498.003906 L 717.347656 563.929688 L 732.53125 635.347656 L 747.71875 558.4375 L 762.90625 530.96875 L 778.09375 478.777344 L 793.277344 492.511719 L 808.464844 498.003906 L 823.652344 448.5625 L 838.835938 448.5625 L 854.023438 388.128906 L 869.210938 426.585938 L 884.398438 388.128906 L 899.582031 388.1875 L 914.769531 388.128906 L 929.957031 388.128906 L 945.140625 503.5 L 960.328125 388.128906 L 975.515625 503.5 L 990.703125 563.929688 L 1005.886719 563.929688 L 1021.074219 514.488281 L 1036.261719 618.867188 L 1051.445312 646.335938 L 1066.632812 508.992188 L 1081.820312 651.832031 L 1097.003906 536.460938 L 1112.191406 624.363281 L 1127.378906 569.425781 L 1142.566406 517.234375 L 1157.75 443.066406 L 1172.9375 487.019531 L 1188.125 547.449219 L 1203.308594 591.398438 L 1218.496094 566.675781 L 1233.683594 563.929688 L 1248.871094 580.410156 L 1264.054688 602.386719 L 1279.242188 580.410156 L 1294.429688 574.917969 L 1309.613281 621.613281 L 1324.800781 607.878906 L 1339.988281 583.160156 L 1355.171875 550.195312 L 1370.359375 536.460938 L 1385.546875 519.980469 L 1400.734375 541.957031 L 1415.917969 536.460938 L 1431.105469 495.257812 L 1446.292969 465.042969 L 1461.476562 467.789062 L 1476.664062 470.535156 L 1491.851562 470.535156 L 1507.039062 476.03125 L 1522.222656 470.535156 L 1537.410156 476.03125 L 1552.597656 476.03125 L 1567.78125 393.625 L 1582.96875 476.03125 L 1582.96875 723.25 L 79.519531 723.25 Z M 79.519531 322.207031 "/>
</g></g></svg>
