<?xml version="1.0" encoding="UTF-8"?>
<svg xmlns="http://www.w3.org/2000/svg" xmlns:xlink="http://www.w3.org/1999/xlink" width="1600pt" height="800pt" viewBox="0 0 1600 800" version="1.1">


<g><g clip-path="url(#bnVkXTdOTI__clip1)" clip-rule="nonzero">
<path style=" stroke:none;fill-rule:nonzero;fill:rgb(30.588235%,47.45098%,65.490196%);fill-opacity:0.498039;" d="M 99.308594 267.402344 L 114.292969 288.199219 L 129.28125 390.15625 L 144.265625 464.214844 L 159.253906 439.867188 L 174.238281 452.546875 L 189.226562 430.734375 L 204.214844 433.777344 L 219.199219 471.316406 L 234.1875 497.183594 L 249.171875 510.878906 L 264.160156 526.097656 L 279.144531 514.429688 L 294.132812 427.183594 L 309.117188 348.054688 L 324.105469 382.546875 L 339.089844 352.113281 L 354.078125 392.691406 L 369.0625 394.214844 L 384.050781 368.34375 L 399.039062 328.273438 L 414.023438 340.953125 L 429.011719 326.242188 L 443.996094 283.128906 L 458.984375 261.316406 L 473.96875 283.636719 L 488.957031 271.96875 L 503.941406 340.445312 L 518.929688 353.128906 L 533.914062 347.039062 L 548.902344 303.925781 L 563.886719 369.867188 L 578.875 399.792969 L 593.863281 350.589844 L 608.847656 319.648438 L 623.835938 306.460938 L 638.820312 361.242188 L 653.808594 310.519531 L 668.792969 314.070312 L 683.78125 309.503906 L 698.765625 249.144531 L 713.753906 232.402344 L 728.738281 193.855469 L 743.726562 151.246094 L 758.710938 142.117188 L 773.699219 186.246094 L 788.6875 192.332031 L 803.671875 188.273438 L 818.660156 175.085938 L 833.644531 269.433594 L 848.632812 334.359375 L 863.617188 352.113281 L 878.605469 339.433594 L 893.589844 264.359375 L 908.578125 320.664062 L 923.5625 283.128906 L 938.550781 363.78125 L 953.535156 333.34375 L 968.523438 269.433594 L 983.511719 306.460938 L 998.496094 259.796875 L 1013.484375 172.550781 L 1028.46875 217.695312 L 1043.457031 204 L 1058.441406 229.867188 L 1073.429688 223.273438 L 1088.414062 200.449219 L 1103.402344 212.621094 L 1118.386719 225.808594 L 1133.375 242.042969 L 1148.359375 328.273438 L 1163.347656 366.316406 L 1178.335938 325.230469 L 1193.320312 336.390625 L 1208.308594 411.96875 L 1223.292969 507.835938 L 1238.28125 531.675781 L 1253.265625 626.023438 L 1268.253906 404.867188 L 1283.238281 478.921875 L 1298.226562 352.621094 L 1313.210938 350.589844 L 1328.199219 349.070312 L 1343.183594 365.300781 L 1358.171875 352.621094 L 1373.160156 348.5625 L 1388.144531 327.257812 L 1403.132812 287.1875 L 1418.117188 269.433594 L 1433.105469 276.535156 L 1448.089844 284.648438 L 1463.078125 261.824219 L 1478.0625 257.257812 L 1493.050781 287.1875 L 1508.035156 180.160156 L 1523.023438 146.171875 L 1538.007812 140.085938 L 1552.996094 176.101562 L 1567.984375 206.027344 L 1582.96875 181.171875 L 1582.96875 672.691406 L 99.308594 672.691406 Z M 99.308594 267.402344 "/>
</g></g></svg>
