<?xml version="1.0" encoding="UTF-8"?>
<svg xmlns="http://www.w3.org/2000/svg" xmlns:xlink="http://www.w3.org/1999/xlink" width="1600pt" height="800pt" viewBox="0 0 1600 800" version="1.1">


<g><g clip-path="url(#Xqf9fixlh2__clip1)" clip-rule="nonzero">
<path style=" stroke:none;fill-rule:nonzero;fill:rgb(0%,48.235294%,100%);fill-opacity:0.498039;" d="M 79.519531 352.421875 L 94.707031 257.65625 L 109.894531 465.03125 L 125.078125 430.707031 L 140.265625 319.460938 L 155.453125 455.429688 L 170.636719 562.558594 L 185.824219 673.804688 L 201.011719 558.4375 L 216.195312 319.460938 L 231.382812 706.769531 L 246.570312 521.355469 L 261.757812 476.03125 L 276.941406 595.519531 L 292.128906 469.851562 L 307.316406 471.910156 L 322.5 441.007812 L 337.6875 455.429688 L 352.875 430.707031 L 368.0625 393.625 L 383.246094 405.984375 L 398.433594 381.261719 L 413.621094 414.226562 L 428.804688 430.707031 L 443.992188 706.769531 L 459.179688 422.464844 L 474.363281 459.550781 L 489.550781 420.40625 L 504.738281 455.429688 L 519.925781 410.105469 L 535.109375 414.226562 L 550.296875 373.023438 L 565.484375 348.300781 L 580.667969 323.578125 L 595.855469 319.460938 L 611.042969 311.21875 L 626.230469 278.257812 L 641.414062 294.738281 L 656.601562 323.578125 L 671.789062 278.257812 L 686.972656 278.257812 L 702.160156 296.796875 L 717.347656 331.820312 L 732.53125 323.578125 L 747.71875 302.976562 L 762.90625 414.226562 L 778.09375 517.234375 L 793.277344 517.234375 L 808.464844 500.753906 L 823.652344 562.558594 L 838.835938 581.097656 L 854.023438 583.160156 L 869.210938 599.640625 L 884.398438 531.65625 L 899.582031 476.03125 L 914.769531 434.828125 L 929.957031 426.585938 L 945.140625 315.339844 L 960.328125 476.03125 L 975.515625 451.308594 L 990.703125 451.308594 L 1005.886719 270.015625 L 1021.074219 249.414062 L 1036.261719 141.75 L 1051.445312 245.292969 L 1081.820312 245.292969 L 1097.003906 195.851562 L 1112.191406 241.171875 L 1127.378906 224.691406 L 1142.566406 237.054688 L 1157.75 294.738281 L 1172.9375 270.015625 L 1188.125 294.738281 L 1203.308594 224.691406 L 1218.496094 241.171875 L 1233.683594 218.511719 L 1248.871094 241.171875 L 1264.054688 228.8125 L 1279.242188 214.390625 L 1294.429688 245.292969 L 1309.613281 212.332031 L 1324.800781 237.054688 L 1339.988281 257.65625 L 1355.171875 245.292969 L 1370.359375 220.570312 L 1385.546875 202.03125 L 1400.734375 204.089844 L 1415.917969 191.730469 L 1431.105469 228.8125 L 1446.292969 261.773438 L 1461.476562 278.257812 L 1476.664062 286.496094 L 1491.851562 352.421875 L 1507.039062 348.300781 L 1522.222656 327.699219 L 1537.410156 331.820312 L 1552.597656 327.699219 L 1567.78125 348.300781 L 1582.96875 348.300781 L 1582.96875 723.25 L 79.519531 723.25 Z M 79.519531 352.421875 "/>
</g></g></svg>
