<?xml version="1.0" encoding="UTF-8"?>
<svg xmlns="http://www.w3.org/2000/svg" xmlns:xlink="http://www.w3.org/1999/xlink" width="1600pt" height="800pt" viewBox="0 0 1600 800" version="1.1">


<g><g clip-path="url(#mB2yQvAqIl__clip1)" clip-rule="nonzero">
<path style=" stroke:none;fill-rule:nonzero;fill:rgb(0%,48.235294%,100%);fill-opacity:0.498039;" d="M 73.519531 225.105469 L 88.765625 216.453125 L 104.015625 145.992188 L 119.261719 202.402344 L 134.507812 265.070312 L 149.753906 266.511719 L 165 264.039062 L 180.25 264.660156 L 195.496094 293.296875 L 210.742188 310.1875 L 225.988281 261.773438 L 241.238281 438.949219 L 256.484375 560.910156 L 271.730469 494.984375 L 286.976562 502.8125 L 302.222656 596.136719 L 317.472656 637.957031 L 332.71875 667.625 L 347.964844 715.832031 L 363.210938 624.773438 L 378.460938 466.140625 L 393.707031 468.613281 L 408.953125 436.0625 L 424.199219 457.078125 L 439.445312 485.507812 L 454.695312 484.269531 L 469.941406 470.261719 L 485.1875 458.3125 L 500.433594 457.902344 L 515.683594 460.375 L 530.929688 451.308594 L 546.175781 443.480469 L 561.421875 444.304688 L 576.667969 468.203125 L 591.917969 434.863281 L 607.164062 446.363281 L 622.410156 323.578125 L 637.65625 245.292969 L 652.90625 245.292969 L 668.152344 278.667969 L 683.398438 305.039062 L 698.644531 282.789062 L 713.890625 266.308594 L 729.140625 277.433594 L 744.386719 265.894531 L 759.632812 290.617188 L 774.878906 290.203125 L 790.128906 322.34375 L 805.375 335.941406 L 820.621094 387.03125 L 835.867188 333.878906 L 851.113281 342.945312 L 866.363281 228.679688 L 881.609375 314.101562 L 896.855469 313.691406 L 912.101562 300.917969 L 927.351562 316.574219 L 942.597656 345.003906 L 957.84375 345.417969 L 973.089844 426.175781 L 988.335938 379.617188 L 1003.585938 441.007812 L 1018.832031 525.886719 L 1034.078125 497.457031 L 1049.324219 543.191406 L 1064.574219 430.539062 L 1079.820312 505.285156 L 1095.066406 481.800781 L 1110.3125 505.695312 L 1125.558594 453.78125 L 1140.808594 401.042969 L 1156.054688 464.082031 L 1171.300781 393.210938 L 1186.546875 428.648438 L 1201.796875 476.03125 L 1217.042969 437.300781 L 1232.289062 393.625 L 1247.535156 374.671875 L 1262.78125 365.605469 L 1278.03125 354.894531 L 1293.277344 427.824219 L 1308.523438 465.730469 L 1323.769531 472.324219 L 1339.019531 443.273438 L 1354.265625 472.734375 L 1369.511719 471.910156 L 1384.757812 441.007812 L 1400.003906 429.058594 L 1415.253906 433.878906 L 1430.5 438.125 L 1445.746094 434.210938 L 1460.992188 432.765625 L 1476.242188 435.238281 L 1491.488281 439.359375 L 1506.734375 433.796875 L 1521.980469 439.566406 L 1537.226562 438.949219 L 1552.476562 432.355469 L 1567.722656 422.464844 L 1582.96875 420.40625 L 1582.96875 723.25 L 73.519531 723.25 Z M 73.519531 225.105469 "/>
</g></g></svg>
