<?xml version="1.0" encoding="UTF-8"?>
<svg xmlns="http://www.w3.org/2000/svg" xmlns:xlink="http://www.w3.org/1999/xlink" width="1600pt" height="800pt" viewBox="0 0 1600 800" version="1.1">


<g><g clip-path="url(#LNToqKxN9o__clip1)" clip-rule="nonzero">
<path style=" stroke:none;fill-rule:nonzero;fill:rgb(0%,48.235294%,100%);fill-opacity:0.498039;" d="M 73.519531 119.210938 L 88.765625 176.074219 L 104.015625 239.9375 L 119.261719 249.414062 L 134.507812 249.414062 L 149.753906 249.824219 L 165 272.898438 L 180.25 287.320312 L 195.496094 247.355469 L 210.742188 424.527344 L 225.988281 554.316406 L 241.238281 471.5 L 256.484375 476.03125 L 271.730469 561.320312 L 286.976562 606.644531 L 302.222656 641.050781 L 317.472656 694.820312 L 332.71875 622.300781 L 347.964844 487.15625 L 363.210938 446.363281 L 378.460938 464.90625 L 393.707031 484.269531 L 408.953125 508.582031 L 424.199219 497.867188 L 439.445312 483.859375 L 454.695312 476.855469 L 469.941406 476.03125 L 485.1875 492.507812 L 500.433594 490.039062 L 515.683594 467.867188 L 530.929688 475.617188 L 546.175781 495.394531 L 561.421875 470.675781 L 576.667969 478.089844 L 591.917969 490.039062 L 607.164062 279.492188 L 622.410156 259.300781 L 637.65625 256.007812 L 652.90625 291.851562 L 668.152344 316.164062 L 683.398438 294.324219 L 698.644531 278.257812 L 713.890625 284.023438 L 729.140625 291.441406 L 744.386719 349.539062 L 759.632812 356.542969 L 774.878906 394.449219 L 790.128906 379.203125 L 805.375 418.757812 L 820.621094 379.617188 L 835.867188 396.921875 L 851.113281 247.703125 L 866.363281 372.609375 L 881.609375 377.144531 L 896.855469 358.191406 L 912.101562 363.546875 L 927.351562 395.273438 L 942.597656 408.457031 L 957.84375 413.8125 L 973.089844 365.605469 L 988.335938 419.171875 L 1003.585938 505.695312 L 1018.832031 485.917969 L 1034.078125 513.527344 L 1049.324219 383.324219 L 1064.574219 446.777344 L 1079.820312 429.882812 L 1095.066406 444.714844 L 1110.3125 394.449219 L 1125.558594 333.878906 L 1140.808594 388.269531 L 1156.054688 314.515625 L 1171.300781 360.660156 L 1186.546875 406.398438 L 1201.796875 375.496094 L 1217.042969 328.539062 L 1232.289062 311.21875 L 1247.535156 310.394531 L 1262.78125 298.445312 L 1278.03125 371.375 L 1293.277344 422.054688 L 1308.523438 419.996094 L 1323.769531 401.042969 L 1339.019531 460.785156 L 1354.265625 401.863281 L 1369.511719 441.832031 L 1384.757812 423.289062 L 1400.003906 397.746094 L 1415.253906 410.105469 L 1430.5 425.761719 L 1445.746094 434.828125 L 1460.992188 447.804688 L 1476.242188 449.25 L 1491.488281 459.136719 L 1506.734375 452.992188 L 1521.980469 448.835938 L 1537.226562 438.125 L 1552.476562 429.472656 L 1567.722656 426.585938 L 1582.96875 459.136719 L 1582.96875 723.25 L 73.519531 723.25 Z M 73.519531 119.210938 "/>
</g></g></svg>
