<?xml version="1.0" encoding="UTF-8"?>
<svg xmlns="http://www.w3.org/2000/svg" xmlns:xlink="http://www.w3.org/1999/xlink" width="1600pt" height="800pt" viewBox="0 0 1600 800" version="1.1">


<g><g clip-path="url(#ucpIHFTdmy__clip1)" clip-rule="nonzero">
<path style=" stroke:none;fill-rule:nonzero;fill:rgb(30.588235%,47.45098%,65.490196%);fill-opacity:0.498039;" d="M 99.308594 135.171875 L 114.292969 133.957031 L 129.28125 117.652344 L 144.265625 122 L 159.253906 117 L 174.238281 130.609375 L 189.226562 138.78125 L 204.214844 118.519531 L 219.199219 132.128906 L 234.1875 132.652344 L 249.171875 121.433594 L 264.160156 132.304688 L 279.144531 210.605469 L 294.132812 211.390625 L 309.117188 189.433594 L 324.105469 174.042969 L 339.089844 145.304688 L 354.078125 145.128906 L 369.0625 172.652344 L 384.050781 202.171875 L 399.039062 211.476562 L 414.023438 217.738281 L 429.011719 185.957031 L 443.996094 171.128906 L 458.984375 200.390625 L 473.96875 196.652344 L 488.957031 235.78125 L 503.941406 231.867188 L 518.929688 228.390625 L 533.914062 182.347656 L 548.902344 187.304688 L 563.886719 161.476562 L 578.875 137.695312 L 593.863281 122.957031 L 608.847656 108.566406 L 623.835938 116.304688 L 638.820312 153.695312 L 653.808594 131.304688 L 668.792969 143.085938 L 683.78125 129.042969 L 698.765625 143.042969 L 713.753906 160.652344 L 728.738281 143.214844 L 743.726562 132.609375 L 758.710938 123.476562 L 773.699219 147.609375 L 788.6875 129.867188 L 803.671875 127.867188 L 818.660156 136.347656 L 833.644531 108.652344 L 848.632812 108.78125 L 863.617188 101 L 878.605469 94.738281 L 893.589844 105.824219 L 908.578125 151.214844 L 923.5625 163.085938 L 938.550781 176 L 953.535156 174.695312 L 968.523438 215.957031 L 983.511719 176.261719 L 998.496094 221.519531 L 1013.484375 251.5625 L 1028.46875 224.605469 L 1043.457031 269.605469 L 1058.441406 255.652344 L 1073.429688 322.34375 L 1088.414062 342.605469 L 1103.402344 329.78125 L 1118.386719 362.171875 L 1133.375 312.648438 L 1148.359375 293.78125 L 1163.347656 320.433594 L 1178.335938 293.867188 L 1193.320312 300.996094 L 1208.308594 307.5625 L 1223.292969 263.648438 L 1238.28125 257.652344 L 1253.265625 287.519531 L 1268.253906 294.085938 L 1283.238281 343.738281 L 1298.226562 327.519531 L 1313.210938 320.648438 L 1328.199219 305.214844 L 1343.183594 426.171875 L 1358.171875 562.777344 L 1373.160156 566.691406 L 1388.144531 601.039062 L 1403.132812 374.34375 L 1418.117188 478.867188 L 1433.105469 438.171875 L 1448.089844 415.648438 L 1463.078125 422.214844 L 1478.0625 474.171875 L 1493.050781 470.910156 L 1508.035156 525.386719 L 1523.023438 467.257812 L 1538.007812 431.734375 L 1552.996094 382.734375 L 1567.984375 365.5625 L 1582.96875 364.648438 L 1582.96875 672.691406 L 99.308594 672.691406 Z M 99.308594 135.171875 "/>
</g></g></svg>
